<svg xmlns="http://www.w3.org/2000/svg" version="1.1" xmlns:xlink="http://www.w3.org/1999/xlink" xmlns:svgjs="http://svgjs.dev/svgjs" width="1500" height="1500" viewBox="0 0 1500 1500"><rect width="1500" height="1500" fill="#333366"></rect><g transform="matrix(0.6666666666666666,0,0,0.6666666666666666,249.4225697256294,393)"><svg viewBox="0 0 280 200" data-background-color="#333366" preserveAspectRatio="xMidYMid meet" height="1071" width="1500" xmlns="http://www.w3.org/2000/svg" xmlns:xlink="http://www.w3.org/1999/xlink"><g id="tight-bounds" transform="matrix(1,0,0,1,0.1616804768237614,0)"><svg viewBox="0 0 279.6766390463525 200" height="200" width="279.6766390463525"><g><svg viewBox="0 0 281.0750222415842 200.99999999999997" height="200" width="279.6766390463525"><g><rect width="18.0362064" height="200.99999999999997" x="111.61569504950495" y="0" fill="#ffff33" opacity="1" stroke-width="0" stroke="transparent" fill-opacity="1" class="rect-qz-0" data-fill-palette-color="primary" rx="1%" id="qz-0" data-palette-color="#ffff33"></rect></g><g transform="matrix(1,0,0,1,176.86710144950496,0.4999999999999858)"><svg viewBox="0 0 104.2079207920792 200" height="200" width="104.2079207920792"><g id="textblocktransform"><svg viewBox="0 0 104.2079207920792 200" height="200" width="104.2079207920792" id="textblock"><g><svg viewBox="0 0 104.2079207920792 200" height="200" width="104.2079207920792"><g transform="matrix(1,0,0,1,0,0)"><svg width="104.2079207920792" viewBox="-0.45 -35 21.05 40.4" height="200" data-palette-color="#ffff33"><path d="M9.6 5.4Q6.5 5.4 3.88 4.08 1.25 2.75-0.45 0.35L-0.45 0.35 2.35-3.05Q5.25 1.1 9.55 1.1L9.55 1.1Q15.6 1.1 15.6-6L15.6-6 15.6-30.65 3-30.65 3-35 20.6-35 20.6-6.25Q20.6-0.45 17.82 2.48 15.05 5.4 9.6 5.4L9.6 5.4Z" opacity="1" transform="matrix(1,0,0,1,0,0)" fill="#ffff33" class="wordmark-text-0" data-fill-palette-color="primary" id="text-0"></path></svg></g></svg></g></svg></g></svg></g><g transform="matrix(1,0,0,1,0,68.29975247524752)"><svg viewBox="0 0 64.40049504950494 64.40049504950494" height="64.40049504950494" width="64.40049504950494"><g><svg xmlns="http://www.w3.org/2000/svg" xmlns:xlink="http://www.w3.org/1999/xlink" version="1.1" x="0" y="0" viewBox="24.200000000000003 24.200000000000003 51.599999999999994 51.599999999999994" style="enable-background:new 0 0 100 100;" xml:space="preserve" height="64.40049504950494" width="64.40049504950494" class="icon-icon-0" data-fill-palette-color="accent" id="icon-0"><g fill="#ffffff" data-fill-palette-color="accent"><rect x="42.3" y="49.1" transform="matrix(0.2934 -0.956 0.956 0.2934 -12.4786 83.2242)" width="15.6" height="2" fill="#ffffff" data-fill-palette-color="accent"></rect><polygon points="43.4,44.4 37.7,50.2 43.4,55.9 44.8,54.5 40.5,50.2 44.8,45.8  " fill="#ffffff" data-fill-palette-color="accent"></polygon><polygon points="54.7,45.8 59,50.2 54.7,54.5 56.1,55.9 61.8,50.2 56.1,44.4  " fill="#ffffff" data-fill-palette-color="accent"></polygon><path d="M62 33.9c-0.2-0.2-0.4-0.3-0.7-0.3H38.8c-0.3 0-0.5 0.1-0.7 0.3l-4.4 4.4c-0.2 0.2-0.3 0.4-0.3 0.7v22.3c0 0.3 0.1 0.5 0.3 0.7l4.4 4.4c0.2 0.2 0.4 0.3 0.7 0.3h22.5c0.3 0 0.5-0.1 0.7-0.3l4.4-4.4c0.2-0.2 0.3-0.4 0.3-0.7V39c0-0.3-0.1-0.5-0.3-0.7L62 33.9zM64.7 60.9l-3.8 3.8H39.2l-3.8-3.8V39.4l3.8-3.8h21.7l3.8 3.8V60.9z" fill="#ffffff" data-fill-palette-color="accent"></path><path d="M29.3 39.8h-4.1c-0.5 0-1 0.4-1 1 0 0.5 0.4 1 1 1h4.1c0.5 0 1-0.4 1-1C30.3 40.2 29.9 39.8 29.3 39.8z" fill="#ffffff" data-fill-palette-color="accent"></path><path d="M29.3 44.5h-4.1c-0.5 0-1 0.4-1 1 0 0.5 0.4 1 1 1h4.1c0.5 0 1-0.4 1-1C30.3 44.9 29.9 44.5 29.3 44.5z" fill="#ffffff" data-fill-palette-color="accent"></path><path d="M29.3 49.2h-4.1c-0.5 0-1 0.4-1 1 0 0.5 0.4 1 1 1h4.1c0.5 0 1-0.4 1-1C30.3 49.6 29.9 49.2 29.3 49.2z" fill="#ffffff" data-fill-palette-color="accent"></path><path d="M29.3 53.9h-4.1c-0.5 0-1 0.4-1 1 0 0.5 0.4 1 1 1h4.1c0.5 0 1-0.4 1-1C30.3 54.3 29.9 53.9 29.3 53.9z" fill="#ffffff" data-fill-palette-color="accent"></path><path d="M29.3 58.6h-4.1c-0.5 0-1 0.4-1 1 0 0.5 0.4 1 1 1h4.1c0.5 0 1-0.4 1-1C30.3 59 29.9 58.6 29.3 58.6z" fill="#ffffff" data-fill-palette-color="accent"></path><path d="M70.7 41.7h4.1c0.5 0 1-0.4 1-1 0-0.5-0.4-1-1-1h-4.1c-0.5 0-1 0.4-1 1C69.7 41.3 70.1 41.7 70.7 41.7z" fill="#ffffff" data-fill-palette-color="accent"></path><path d="M74.7 44.5h-4.1c-0.5 0-1 0.4-1 1 0 0.5 0.4 1 1 1h4.1c0.5 0 1-0.4 1-1C75.7 44.9 75.3 44.5 74.7 44.5z" fill="#ffffff" data-fill-palette-color="accent"></path><path d="M74.7 49.2h-4.1c-0.5 0-1 0.4-1 1 0 0.5 0.4 1 1 1h4.1c0.5 0 1-0.4 1-1C75.7 49.6 75.3 49.2 74.7 49.2z" fill="#ffffff" data-fill-palette-color="accent"></path><path d="M74.7 53.9h-4.1c-0.5 0-1 0.4-1 1 0 0.5 0.4 1 1 1h4.1c0.5 0 1-0.4 1-1C75.7 54.3 75.3 53.9 74.7 53.9z" fill="#ffffff" data-fill-palette-color="accent"></path><path d="M74.7 58.6h-4.1c-0.5 0-1 0.4-1 1 0 0.5 0.4 1 1 1h4.1c0.5 0 1-0.4 1-1C75.7 59 75.3 58.6 74.7 58.6z" fill="#ffffff" data-fill-palette-color="accent"></path><path d="M40.6 69.7c-0.5 0-1 0.4-1 1v4.1c0 0.5 0.4 1 1 1 0.5 0 1-0.4 1-1v-4.1C41.6 70.1 41.2 69.7 40.6 69.7z" fill="#ffffff" data-fill-palette-color="accent"></path><path d="M45.3 69.7c-0.5 0-1 0.4-1 1v4.1c0 0.5 0.4 1 1 1 0.5 0 1-0.4 1-1v-4.1C46.3 70.1 45.8 69.7 45.3 69.7z" fill="#ffffff" data-fill-palette-color="accent"></path><path d="M50 69.7c-0.5 0-1 0.4-1 1v4.1c0 0.5 0.4 1 1 1 0.5 0 1-0.4 1-1v-4.1C51 70.1 50.5 69.7 50 69.7z" fill="#ffffff" data-fill-palette-color="accent"></path><path d="M54.7 69.7c-0.5 0-1 0.4-1 1v4.1c0 0.5 0.4 1 1 1 0.5 0 1-0.4 1-1v-4.1C55.7 70.1 55.2 69.7 54.7 69.7z" fill="#ffffff" data-fill-palette-color="accent"></path><path d="M59.4 69.7c-0.5 0-1 0.4-1 1v4.1c0 0.5 0.4 1 1 1 0.5 0 1-0.4 1-1v-4.1C60.4 70.1 59.9 69.7 59.4 69.7z" fill="#ffffff" data-fill-palette-color="accent"></path><path d="M40.6 30.3c0.5 0 1-0.4 1-1v-4.1c0-0.5-0.4-1-1-1-0.5 0-1 0.4-1 1v4.1C39.6 29.9 40.1 30.3 40.6 30.3z" fill="#ffffff" data-fill-palette-color="accent"></path><path d="M45.3 30.3c0.5 0 1-0.4 1-1v-4.1c0-0.5-0.4-1-1-1-0.5 0-1 0.4-1 1v4.1C44.3 29.9 44.8 30.3 45.3 30.3z" fill="#ffffff" data-fill-palette-color="accent"></path><path d="M50 30.3c0.5 0 1-0.4 1-1v-4.1c0-0.5-0.4-1-1-1-0.5 0-1 0.4-1 1v4.1C49 29.9 49.5 30.3 50 30.3z" fill="#ffffff" data-fill-palette-color="accent"></path><path d="M54.7 30.3c0.5 0 1-0.4 1-1v-4.1c0-0.5-0.4-1-1-1-0.5 0-1 0.4-1 1v4.1C53.7 29.9 54.2 30.3 54.7 30.3z" fill="#ffffff" data-fill-palette-color="accent"></path><path d="M59.4 30.3c0.5 0 1-0.4 1-1v-4.1c0-0.5-0.4-1-1-1-0.5 0-1 0.4-1 1v4.1C58.4 29.9 58.8 30.3 59.4 30.3z" fill="#ffffff" data-fill-palette-color="accent"></path></g></svg></g></svg></g></svg></g><defs></defs></svg><rect width="279.6766390463525" height="200" fill="none" stroke="none" visibility="hidden"></rect></g></svg></g></svg>